<?xml version="1.0" encoding="utf-8"?>
<!-- Generator: Adobe Illustrator 24.1.1, SVG Export Plug-In . SVG Version: 6.00 Build 0)  -->
<svg version="1.1" id="Layer_1" xmlns="http://www.w3.org/2000/svg" xmlns:xlink="http://www.w3.org/1999/xlink" x="0px" y="0px"
	 viewBox="0 0 24 24" style="enable-background:new 0 0 24 24;" xml:space="preserve">
<style type="text/css">
	.st0{fill:#D9A126;}
</style>
<path class="st0" d="M6.5,8h1V7c0-0.3-0.1-0.5-0.3-0.7C7,6.1,6.8,6,6.5,6C6.2,6,6,6.1,5.8,6.3C5.6,6.5,5.5,6.7,5.5,7
	s0.1,0.5,0.3,0.7C6,7.9,6.2,8,6.5,8z M11,8c0.3,0,0.5-0.1,0.7-0.3C11.9,7.5,12,7.3,12,7s-0.1-0.5-0.3-0.7C11.5,6.1,11.3,6,11,6
	s-0.5,0.1-0.7,0.3C10.1,6.5,10,6.7,10,7v1H11z M9.5,11H17c0.8,0,1.5,0.3,2.1,0.9c0.6,0.6,0.9,1.3,0.9,2.1v4c0,1.1-0.4,2-1.2,2.8
	S17.1,22,16,22h-5.5c-0.5,0-0.9-0.1-1.3-0.3s-0.8-0.5-1-0.9l-5.4-6.9l0.5-0.5c0.3-0.4,0.7-0.6,1.2-0.6c0.5-0.1,0.9,0,1.3,0.3
	l1.8,1.1V10h-1C5.7,10,5,9.7,4.4,9.1S3.5,7.8,3.5,7s0.3-1.5,0.9-2.1S5.7,4,6.5,4C6.7,4,6.9,4,7,4c0.2,0,0.3,0.1,0.5,0.1V3
	c0-0.3,0.1-0.5,0.3-0.7C8,2.1,8.2,2,8.5,2S9,2.1,9.2,2.3C9.4,2.5,9.5,2.7,9.5,3v1.4c0.2-0.1,0.5-0.2,0.7-0.3C10.5,4,10.7,4,11,4
	c0.8,0,1.5,0.3,2.1,0.9S14,6.2,14,7s-0.3,1.5-0.9,2.1S11.8,10,11,10H9.5V11z"/>
</svg>
